<?xml version="1.0" standalone="no"?>
<!DOCTYPE svg PUBLIC "-//W3C//DTD SVG 20010904//EN"
 "http://www.w3.org/TR/2001/REC-SVG-20010904/DTD/svg10.dtd">
<svg version="1.0" xmlns="http://www.w3.org/2000/svg"
 width="512.000000pt" height="512.000000pt" viewBox="0 0 512.000000 512.000000"
 preserveAspectRatio="xMidYMid meet">
<metadata>
Created by potrace 1.14, written by Peter Selinger 2001-2017
</metadata>
<g transform="translate(0.000000,512.000000) scale(0.100000,-0.100000)"
fill="#000000" stroke="none">
<path d="M1536 4962 c-2 -1 -96 -3 -209 -3 l-207 0 0 -40 0 -40 -72 1 c-40 1
-94 1 -120 1 l-48 -1 0 -40 0 -40 -40 0 -40 0 0 -40 0 -40 -41 0 c-41 0 -41 0
-37 -35 4 -38 -4 -45 -53 -45 -27 0 -29 -2 -29 -40 l0 -40 -40 0 -40 0 0 -80
0 -80 -39 0 -40 0 0 -160 -1 -160 40 0 40 0 0 -80 0 -80 33 -1 c17 -1 35 -1
40 0 4 0 7 -17 7 -39 l0 -40 -41 0 -40 0 1 -62 c3 -103 5 -98 -40 -98 -40 0
-40 0 -40 -39 0 -39 -1 -40 -37 -43 -35 -3 -38 -6 -43 -38 -5 -32 -8 -35 -42
-38 -37 -3 -38 -4 -38 -43 0 -36 -2 -39 -27 -40 -16 -1 -33 -1 -40 0 -7 1 -13
-14 -15 -36 -3 -35 -6 -38 -38 -43 l-35 -5 -3 -117 -3 -118 -39 0 c-37 0 -46
-7 -41 -34 3 -15 2 -254 -1 -268 -2 -9 10 -14 40 -16 42 -3 42 -4 42 -41 0
-30 -4 -40 -20 -44 -11 -3 -18 -2 -15 2 2 5 -7 6 -20 3 -22 -4 -25 -10 -25
-43 0 -39 0 -39 -40 -39 l-40 0 0 -80 0 -80 40 0 40 0 0 -41 c0 -32 -3 -40
-17 -38 -10 1 -28 1 -40 0 l-23 -1 0 -280 0 -280 40 0 40 0 -1 -80 -1 -80 -39
0 -39 0 0 -80 0 -80 43 0 43 0 -4 -40 c-4 -38 -3 -40 24 -41 16 -1 35 -1 42 0
8 1 12 -12 12 -37 0 -44 16 -53 75 -42 17 3 42 4 57 2 25 -4 28 -8 28 -44 0
-25 4 -38 12 -37 7 1 44 1 81 0 48 -1 67 -5 66 -13 -1 -7 -1 -25 0 -40 1 -26
4 -28 41 -28 l40 0 0 -40 0 -41 111 2 c61 0 115 -3 119 -7 5 -5 10 -22 12 -39
l3 -30 79 -3 c72 -3 78 -4 73 -22 -3 -11 -1 -22 4 -25 4 -3 6 -12 2 -20 -5
-15 40 -17 315 -15 63 1 83 -2 81 -12 -1 -7 -1 -25 0 -40 l1 -27 197 -1 c108
0 198 -2 200 -4 2 -2 4 -19 5 -39 l1 -37 156 -2 156 -3 5 -35 5 -35 118 -3
117 -3 0 -42 0 -42 63 5 c92 8 97 5 97 -41 l0 -40 223 1 c122 0 230 1 240 0
13 0 17 -9 17 -40 l0 -39 223 -1 c122 -1 248 -1 280 0 61 1 64 -2 58 -63 -2
-16 18 -17 307 -17 170 1 314 0 318 -1 5 -1 28 -1 52 0 l42 1 0 40 c0 31 4 40
18 40 9 1 81 1 160 0 l142 -1 0 41 0 40 80 0 80 0 0 43 0 42 71 -5 c70 -5 92
-1 88 16 -1 5 -1 21 0 37 1 25 4 27 44 27 l42 0 -5 68 c-3 37 -3 110 0 162 3
52 4 166 2 253 l-3 157 -39 0 -40 0 0 80 0 80 40 0 40 0 0 40 0 40 40 0 40 0
0 40 0 40 40 0 40 0 0 280 0 280 -40 0 c-22 0 -39 3 -39 8 1 4 1 40 0 80 l-1
72 -41 0 -40 0 3 37 c3 34 6 38 33 41 17 2 34 7 38 12 5 4 8 58 8 119 l-1 111
40 0 40 0 0 320 0 320 -39 0 c-31 0 -40 4 -40 18 0 9 0 45 -1 80 l-2 62 -39 0
c-39 0 -39 0 -39 40 l0 40 -40 0 -40 0 0 43 0 42 -80 -3 -80 -4 0 41 0 41 -39
0 c-39 0 -40 1 -43 38 l-3 37 -78 3 c-53 2 -77 7 -76 15 1 7 1 24 0 40 -1 25
-4 27 -41 27 l-40 0 0 41 0 40 -92 -1 c-154 -2 -150 -3 -148 23 5 53 2 57 -43
57 l-43 0 4 40 4 40 -121 0 c-92 0 -121 3 -120 13 1 6 1 24 0 40 l-1 27 -80 0
c-44 0 -79 3 -79 8 1 4 1 21 0 39 l-1 31 -111 1 c-62 1 -116 4 -120 7 -5 3 -9
21 -9 40 0 28 -4 34 -22 35 -13 1 -27 0 -33 -1 -11 -3 -36 -3 -77 -1 -26 1
-28 4 -28 42 0 38 -2 40 -27 39 -16 -1 -69 -2 -119 -1 l-91 1 -1 36 c-1 20 -3
38 -5 40 -2 2 -64 4 -138 3 -74 0 -142 0 -153 0 -25 0 -28 4 -28 45 l0 36
-119 0 -119 0 0 40 0 40 -80 0 -80 0 0 41 c0 41 0 41 -37 39 -21 -1 -74 -2
-119 -1 l-81 1 -1 36 c-1 20 -3 38 -5 40 -3 4 -335 7 -352 4 -36 -7 -45 1 -45
39 l0 39 -71 4 c-39 2 -72 2 -73 0z"/>
</g>
</svg>
