<?xml version="1.0" standalone="no"?>
<!DOCTYPE svg PUBLIC "-//W3C//DTD SVG 20010904//EN"
 "http://www.w3.org/TR/2001/REC-SVG-20010904/DTD/svg10.dtd">
<svg version="1.0" xmlns="http://www.w3.org/2000/svg"
 width="1024.000000pt" height="1024.000000pt" viewBox="0 0 1024.000000 1024.000000"
 preserveAspectRatio="xMidYMid meet">
<metadata>
Created by potrace 1.14, written by Peter Selinger 2001-2017
</metadata>
<g transform="translate(0.000000,1024.000000) scale(0.100000,-0.100000)"
fill="#000000" stroke="none">
<path d="M2718 9333 l-3 -138 -422 -3 -423 -2 0 -149 c0 -127 -2 -150 -16
-155 -9 -3 -189 -6 -400 -6 l-384 0 0 -140 0 -140 -270 0 -269 0 -3 -122 -3
-123 -107 -3 -108 -3 0 -234 0 -235 -80 0 -80 0 0 -660 0 -660 188 -2 187 -3
0 -290 0 -290 -187 -3 -188 -2 0 -495 0 -495 185 0 185 0 0 -245 0 -245 -185
0 -185 0 -2 -400 -3 -400 193 0 192 0 0 -270 0 -270 -115 0 -115 0 0 -95 0
-95 -82 0 -81 0 6 -497 c4 -273 7 -687 7 -919 l0 -424 187 -2 188 -3 3 -158 3
-157 2038 0 c1121 0 3220 3 4664 7 l2627 6 0 154 0 153 160 0 160 0 0 745 0
745 30 0 30 0 0 155 0 155 -30 0 -30 0 0 109 c0 60 -3 116 -6 125 -5 14 -29
16 -160 16 l-154 0 2 258 3 257 153 3 152 3 0 399 0 400 -155 0 -155 0 2 248
3 247 188 3 187 2 0 490 0 490 -190 0 -190 0 0 295 0 295 160 0 159 0 3 118 3
117 28 3 27 3 0 540 0 539 -40 0 -40 0 0 235 0 235 -150 0 -150 0 0 125 0 125
-275 0 -275 0 0 145 0 145 -297 2 -298 3 -3 143 -3 142 -464 0 -465 0 0 145 0
145 -2530 0 -2529 0 -3 -137z"/>
</g>
</svg>
